# xmcd CD database file
#
# Track frame offsets:
#	182
#	16400
#	28655
#	44677
#	61445
#	80302
#	98605
#	121597
#	141017
#	159707
#	179547
#	192345
#
# Disc length: 2695 seconds
#
# Revision: 4
# Processed by: cddbd v1.5.2PL0 Copyright (c) Steve Scherf et al.
# Submitted via: CDex 1.51
#
DISCID=9b0a850c
DTITLE=Various Artist - The Complete Motown Anthology [CD10)
DYEAR=1997
DGENRE=Motown
TTITLE0=Bonnie Pointer - Heaven Must Have Sent You
TTITLE1=The Jackson 5 - Dancing Machine
TTITLE2=The Commodores - Too Hot Ta Trot
TTITLE3=Teena Marie - Square Biz
TTITLE4=DeBarge - All This Love
TTITLE5=Dennis Edwards with Siedah Garrett  - Don't Look Any Further
TTITLE6=The Commodores - Nightshift
TTITLE7=The Temptations - Treat Her Like A Lady
TTITLE8=Johnny Gill - My, My, My
TTITLE9=The Boys - Dial My Heart
TTITLE10=Boyz II Men - It's So Hard To Say Goodbye To Yesterday
TTITLE11=Dennis Edwards - Keep On Tryin' ('Til You Find Love)
EXTD=YEAR: 1997
EXTT0=
EXTT1=
EXTT2=
EXTT3=
EXTT4=
EXTT5=
EXTT6=
EXTT7=
EXTT8=
EXTT9=
EXTT10=
EXTT11=
PLAYORDER=
